<svg width="27" height="25" viewBox="0 0 27 25" fill="none" xmlns="http://www.w3.org/2000/svg">
<path d="M16.0073 1.34445C16.0073 0.149063 14.6607 -0.449705 13.8723 0.395867L9.17618 5.43282C8.9903 5.63224 8.7696 5.79043 8.5267 5.89832C8.28379 6.00622 8.02344 6.06171 7.76053 6.06163H4.00182C2.94047 6.06163 1.92259 6.51385 1.17211 7.3188C0.421619 8.12375 0 9.2155 0 10.3539V14.6461C0 15.7845 0.421619 16.8762 1.17211 17.6812C1.92259 18.4862 2.94047 18.9384 4.00182 18.9384H7.76053C8.02344 18.9383 8.28379 18.9938 8.5267 19.1017C8.7696 19.2096 8.9903 19.3678 9.17618 19.5672L13.8723 24.6041C14.6607 25.4497 16.0073 24.8509 16.0073 23.6555V1.34445ZM19.3018 8.52216C19.4894 8.32099 19.7438 8.20798 20.0091 8.20798C20.2744 8.20798 20.5288 8.32099 20.7164 8.52216L23.0105 10.9827L25.3045 8.52216C25.4932 8.32669 25.7459 8.21854 26.0082 8.22098C26.2706 8.22343 26.5215 8.33628 26.707 8.53523C26.8925 8.73419 26.9977 9.00332 27 9.28468C27.0022 9.56603 26.9014 9.83709 26.7192 10.0395L24.4251 12.5L26.7192 14.9605C26.9014 15.1629 27.0022 15.434 27 15.7153C26.9977 15.9967 26.8925 16.2658 26.707 16.4648C26.5215 16.6637 26.2706 16.7766 26.0082 16.779C25.7459 16.7815 25.4932 16.6733 25.3045 16.4778L23.0105 14.0173L20.7164 16.4778C20.5277 16.6733 20.275 16.7815 20.0127 16.779C19.7504 16.7766 19.4995 16.6637 19.314 16.4648C19.1285 16.2658 19.0233 15.9967 19.021 15.7153C19.0187 15.434 19.1195 15.1629 19.3018 14.9605L21.5958 12.5L19.3018 10.0395C19.1142 9.83824 19.0089 9.56535 19.0089 9.28081C19.0089 8.99628 19.1142 8.72339 19.3018 8.52216Z" fill="#2AFF00"/>
</svg>
