<svg width="25" height="25" viewBox="0 0 25 25" fill="none" xmlns="http://www.w3.org/2000/svg">
<path d="M16.25 1.73826V23.2604C16.25 24.759 14.6575 25.5534 13.65 24.5576L8.035 19.0104C7.86339 18.8412 7.64191 18.7478 7.4125 18.7479H2.8125C2.44316 18.7479 2.07743 18.6671 1.7362 18.51C1.39497 18.353 1.08493 18.1228 0.823762 17.8326C0.562597 17.5424 0.35543 17.1979 0.214089 16.8188C0.0727475 16.4397 0 16.0333 0 15.6229V9.37573C0.000331424 8.54717 0.296794 7.75267 0.824204 7.16693C1.35161 6.58118 2.06679 6.25213 2.8125 6.25213H7.4125C7.64208 6.25182 7.86358 6.15793 8.035 5.98824L13.6487 0.442432C14.6575 -0.553398 16.25 0.241044 16.25 1.73826ZM21.24 4.02714C21.4397 3.8627 21.6901 3.79315 21.936 3.83378C22.1819 3.87441 22.4032 4.0219 22.5512 4.2438C24.1454 6.63296 25.0041 9.52936 25 12.5035C25.0035 15.4773 24.1443 18.3732 22.55 20.7618C22.4004 20.979 22.18 21.1222 21.9362 21.1603C21.6925 21.1985 21.445 21.1286 21.2472 20.9658C21.0494 20.8029 20.9172 20.5602 20.8792 20.29C20.8411 20.0197 20.9002 19.7437 21.0437 19.5215C22.3987 17.4917 23.1285 15.0306 23.125 12.5035C23.1288 9.97586 22.3989 7.51425 21.0437 5.48408C20.9703 5.37405 20.9172 5.24902 20.8873 5.11614C20.8574 4.98327 20.8514 4.84515 20.8697 4.70969C20.8879 4.57424 20.93 4.44411 20.9935 4.32675C21.0571 4.20939 21.1408 4.10849 21.24 4.02714ZM18.9287 7.46046C19.037 7.39522 19.1558 7.35432 19.2782 7.3401C19.4007 7.32587 19.5245 7.3386 19.6426 7.37755C19.7606 7.4165 19.8706 7.48091 19.9663 7.56711C20.0619 7.6533 20.1413 7.75959 20.2 7.8799C20.87 9.25489 21.25 10.8313 21.25 12.5035C21.2506 14.1172 20.8898 15.7057 20.2 17.1257C20.1414 17.2461 20.062 17.3524 19.9664 17.4387C19.8708 17.525 19.7609 17.5896 19.6428 17.6286C19.5248 17.6677 19.4009 17.6806 19.2784 17.6665C19.1559 17.6524 19.0371 17.6116 18.9287 17.5465C18.8204 17.4814 18.7247 17.3932 18.647 17.287C18.5693 17.1808 18.5113 17.0586 18.4761 16.9274C18.4409 16.7963 18.4293 16.6587 18.442 16.5226C18.4547 16.3864 18.4914 16.2544 18.55 16.134C19.0918 15.0186 19.3753 13.771 19.375 12.5035C19.375 11.1868 19.075 9.95072 18.55 8.87156C18.4319 8.62861 18.4055 8.3435 18.4765 8.0789C18.5475 7.8143 18.7102 7.59186 18.9287 7.46046Z" fill="#2AFF00"/>
</svg>
